<svg preserveAspectRatio="none" width="100%" height="100%" overflow="visible" style="display: block;" viewBox="0 0 93.3333 93.3333" fill="none" xmlns="http://www.w3.org/2000/svg">
<g id="Container">
<path id="Icon" d="M65.3333 60.6667C61.4444 60.6667 58.1389 59.3056 55.4167 56.5833C52.6944 53.8611 51.3333 50.5556 51.3333 46.6667C51.3333 42.7778 52.6944 39.4722 55.4167 36.75C58.1389 34.0278 61.4444 32.6667 65.3333 32.6667C69.2222 32.6667 72.5278 34.0278 75.25 36.75C77.9722 39.4722 79.3333 42.7778 79.3333 46.6667C79.3333 50.5556 77.9722 53.8611 75.25 56.5833C72.5278 59.3056 69.2222 60.6667 65.3333 60.6667V60.6667M37.3333 93.3333V79.8C37.3333 78.1667 37.7222 76.6306 38.5 75.1917C39.2778 73.7528 40.3667 72.6056 41.7667 71.75C44.2556 70.2722 46.8806 69.0472 49.6417 68.075C52.4028 67.1028 55.2222 66.3833 58.1 65.9167L65.3333 74.6667L72.5667 65.9167C75.4444 66.3833 78.2444 67.1028 80.9667 68.075C83.6889 69.0472 86.2944 70.2722 88.7833 71.75C90.1833 72.6056 91.2917 73.7528 92.1083 75.1917C92.925 76.6306 93.3333 78.1667 93.3333 79.8V93.3333H37.3333V93.3333M28 79.8V84H9.33333C6.76667 84 4.56944 83.0861 2.74167 81.2583C0.913889 79.4306 0 77.2333 0 74.6667V9.33333C0 6.76667 0.913889 4.56944 2.74167 2.74167C4.56944 0.913889 6.76667 0 9.33333 0H74.6667C77.2333 0 79.4306 0.913889 81.2583 2.74167C83.0861 4.56944 84 6.76667 84 9.33333V32.6667C81.5889 29.6333 78.8667 27.3194 75.8333 25.725C72.8 24.1306 69.3 23.3333 65.3333 23.3333V23.3333V23.3333V18.6667H18.6667V28H51.3333C49.7778 29.2444 48.3778 30.6444 47.1333 32.2C45.8889 33.7556 44.8389 35.4667 43.9833 37.3333H18.6667V46.6667H42C42 48.3 42.175 49.8944 42.525 51.45C42.875 53.0056 43.3611 54.5222 43.9833 56V56V56H18.6667V65.3333H34.7667C32.6667 67.1222 31.0139 69.2806 29.8083 71.8083C28.6028 74.3361 28 77 28 79.8V79.8" fill="#004871" fill-opacity="0.1"/>
</g>
</svg>
