<svg preserveAspectRatio="none" width="100%" height="100%" overflow="visible" style="display: block;" viewBox="0 0 28 28" fill="none" xmlns="http://www.w3.org/2000/svg">
<g id="SVG">
<path id="Vector" d="M10.5 22.1667V15.1667C10.5 13.8789 9.45447 12.8333 8.16667 12.8333H5.83333C4.54553 12.8333 3.5 13.8789 3.5 15.1667V22.1667C3.5 23.4545 4.54553 24.5 5.83333 24.5H8.16667C9.45447 24.5 10.5 23.4545 10.5 22.1667V22.1667M10.5 22.1667V10.5C10.5 9.2122 11.5455 8.16667 12.8333 8.16667H15.1667C16.4545 8.16667 17.5 9.2122 17.5 10.5V22.1667M10.5 22.1667C10.5 23.4545 11.5455 24.5 12.8333 24.5H15.1667C16.4545 24.5 17.5 23.4545 17.5 22.1667M17.5 22.1667V5.83333C17.5 4.54553 18.5455 3.5 19.8333 3.5H22.1667C23.4545 3.5 24.5 4.54553 24.5 5.83333V22.1667C24.5 23.4545 23.4545 24.5 22.1667 24.5H19.8333C18.5455 24.5 17.5 23.4545 17.5 22.1667H10.5" stroke="#0891B2" stroke-width="2.33333" stroke-linecap="round" stroke-linejoin="round"/>
</g>
</svg>
